<svg xmlns="http://www.w3.org/2000/svg" width="560" height="360" viewBox="0 0 560 360" role="img" aria-label="Origami paper crane" shape-rendering="geometricPrecision">
  <style>
    .outline{stroke:#173963;stroke-width:2.25;stroke-linecap:round;stroke-linejoin:round}
    .pencil{fill:none;stroke:#6e86a5;stroke-width:.7;stroke-linecap:round;stroke-linejoin:round;opacity:.5}
    .detail{fill:none;stroke:#6e86a5;stroke-width:1.2;stroke-linecap:round;stroke-linejoin:round;opacity:.82}
    .paper{fill:#fcf7ef}.blue{fill:#d7e4f3}.sage{fill:#dce4d8}
  </style>
  <g transform="translate(280 177)">
    <path class="paper outline" d="M-10-16-155-84-58 35Z"/><path class="pencil" d="M-12-15-152-82-57 33Z"/>
    <path class="detail" d="M-16-13-115-65M-88-50l17 8M-102-60l15 8"/>
    <path class="blue outline" d="M10-16 155-108 62 35Z"/><path class="pencil" d="M12-16 152-105 61 32Z"/>
    <path class="detail" d="M23-14 117-83M40 1 87-45M104-69l19-13M92-57l17-12"/>
    <path class="paper outline" d="M-55 34-69-48-109-78-94-88-51-53-9-15Z"/><path class="pencil" d="M-54 33-67-46-107-77-94-86-50-51-11-15Z"/>
    <path class="blue outline" d="M-109-78-94-88-85-68Z"/><path class="detail" d="M-68-44-51-53M-72-57l9 6"/>
    <path class="paper outline" d="M55 34 153 10 64 66Z"/><path class="pencil" d="M57 35 149 12 65 64Z"/>
    <path class="sage outline" d="M0-25 61 32 2 92-62 35Z"/><path class="pencil" d="M1-23 59 32 2 90-60 35Z"/>
    <path class="detail" d="M0-20 33 12M-19 45l13 11M-12 38 1 50"/>
  </g>
</svg>
