<svg xmlns="http://www.w3.org/2000/svg" viewBox="0 0 120 120" aria-hidden="true">
  <!-- A single calm left profile, drawn with the same black-and-white line language as the photo guide. -->
  <g stroke="#16191f" stroke-linecap="round" stroke-linejoin="round">
    <path d="M8 120c2-15 14-23 41-30l7-5h26l7 5c18 5 29 15 31 30Z" fill="#16191f" stroke-width="1.7"/>
    <path d="M55 78v14c0 6 7 10 17 10 9 0 14-4 14-11V76" fill="white" stroke-width="1.8"/>
    <path d="M47 33c-8 4-11 12-10 21l-7 8c-2 2-1 4 3 5l4 1-1 7c-1 8 3 13 10 15 10 3 22-2 30-12 7-8 10-17 9-27-1-15-13-25-28-23-4 0-7 2-10 5Z" fill="white" stroke-width="2"/>
    <path d="M38 51c2-2 5-2 8-1m-9 23c2 1 4 1 6 0m-4 7c3 2 7 2 10 0" fill="none" stroke-width="1.3"/>
    <path d="M43 56c1.1-.8 2.5-.8 3.6 0" fill="none" stroke-width="1.2"/>
    <circle cx="44.5" cy="56.2" r="1.05" fill="#16191f" stroke="none"/>
    <path d="M41 46c-1-12 5-23 15-28 11-5 24-4 34 3 9 6 13 16 11 27-1 8-5 16-12 22l-8-8c2-9-1-16-7-21-8-6-18-7-27-4-2 2-4 5-6 9Z" fill="#16191f" stroke-width="2"/>
    <path d="M49 25c8-8 21-10 31-6m-20 4c9-4 20-3 27 2m-22 4c7-2 15-1 21 3" fill="none" stroke="white" stroke-width=".95"/>
    <path d="M80 52c4-5 10-3 11 2 1 5-2 10-8 12m2-9c2-2 4-1 4 1m-4 1-2 3" fill="white" stroke-width="1.8"/>
    <!-- Short fine marks indicate flakes/irritation beside the hairline. -->
    <path d="m55 40 2 3m8-4 2 3m8 1 2 3m-18 1 2 3m12-1 2 3" fill="none" stroke="white" stroke-width="1.9"/>
    <path d="M53 36c5-2 10-2 15 0m2 3c4 0 8 2 11 4m-18 8c5-1 9 0 12 2" fill="none" stroke="white" stroke-width="1.25"/>
  </g>
</svg>
