<svg xmlns="http://www.w3.org/2000/svg" viewBox="0 0 180 520" role="img" aria-labelledby="title">
  <title id="title">Unbranded clear injection pen</title>
  <defs>
    <linearGradient id="body" x1="0" x2="1">
      <stop stop-color="#f8fbff"/>
      <stop offset=".48" stop-color="#c8d5e5"/>
      <stop offset="1" stop-color="#8091a8"/>
    </linearGradient>
    <linearGradient id="glass" x1="0" y1="0" x2="1" y2="1">
      <stop stop-color="#f8fdff" stop-opacity=".88"/>
      <stop offset=".52" stop-color="#a9c1d8" stop-opacity=".46"/>
      <stop offset="1" stop-color="#5d7691" stop-opacity=".78"/>
    </linearGradient>
    <filter id="shadow" x="-50%" y="-20%" width="200%" height="150%"><feDropShadow dx="0" dy="18" stdDeviation="13" flood-color="#10233f" flood-opacity=".24"/></filter>
  </defs>
  <g filter="url(#shadow)">
    <rect x="34" y="30" width="112" height="38" rx="19" fill="url(#body)"/>
    <rect x="45" y="58" width="90" height="88" rx="28" fill="url(#body)"/>
    <rect x="51" y="126" width="78" height="224" rx="31" fill="url(#glass)" stroke="#d7e4f2" stroke-width="4"/>
    <rect x="62" y="151" width="56" height="162" rx="19" fill="#d6ebf9" fill-opacity=".72"/>
    <path d="M67 174h46M67 198h46M67 222h46M67 246h46M67 270h46" stroke="#7f96ad" stroke-width="3" opacity=".7"/>
    <rect x="47" y="330" width="86" height="118" rx="28" fill="url(#body)"/>
    <rect x="63" y="363" width="54" height="42" rx="12" fill="#263b58"/>
    <rect x="72" y="373" width="36" height="20" rx="7" fill="#cfe9ff"/>
    <rect x="66" y="438" width="48" height="48" rx="20" fill="#dbe6f1"/>
    <circle cx="90" cy="462" r="9" fill="#6c819a"/>
  </g>
</svg>
