<svg xmlns="http://www.w3.org/2000/svg" xmlns:xlink="http://www.w3.org/1999/xlink" xmlns:inkscape="http://www.inkscape.org/namespaces/inkscape" version="1.1" width="486" height="138" viewBox="1118 470 486 138">
<defs>
<clipPath id="clip_1">
<path transform="matrix(1,0,0,-1,0,1080)" d="M0 1080H1920V0H0Z"/>
</clipPath>
</defs>
<g fill="#1f303c" stroke="#1f303c" stroke-width="7" stroke-linejoin="round" stroke-linecap="round" inkscape:groupmode="layer" inkscape:label="Layer 1">
<g clip-path="url(#clip_1)">
<path transform="matrix(1,0,0,-1,513.8839,453.36799)" d="M0 0C-1.056-1.222-8.198-2.182-9.278-2.272-67.248-6.982-95.798 35.098-130.288 72.218-135.991 78.356-141.505 84.729-148.135 89.909-150.616 91.848-153.278 93.674-156.212 94.856-159.531 96.194-162.476 96.403-165.162 93.735-168.059 90.858-169.695 86.805-169.799 82.743-170.178 67.893-171.017 43.44-167.758 37.228-166.698 35.208-164.728 33.128-164.728 33.128H-188.928C-185.518 37.19-183.404 42.188-182.868 47.464-182.796 48.169-182.739 48.862-182.698 49.538-180.718 82.128-182.688 149.478-182.688 149.478-182.688 153.611-183.328 159.858-186.178 162.748-187.388 163.978-188.928 165.268-188.928 165.268H-170.628L-169.688 94.548C-150.138 113.948-100.518 165.268-100.518 165.268H-87.178C-87.178 165.268-92.778 163-97.048 159.328-118.155 141.176-137.508 120.968-157.288 101.368H-149.278C-136.184 101.368-100.608 57.788-90.918 47.688-66.418 22.168-46.765 1.796-9.278-.382-4.772-.644 0 0 0 0"/>
<path transform="matrix(1,0,0,-1,667.1161,420.24018)" d="M0 0V61.11C0 62.5-1.57 67.88-2.18 69.47-11.12 92.79-50.74 80.85-52.76 57.41-53.78 45.55-53.89 21.37-52.73 9.62-52.582 8.116-52.223 6.536-51.751 5.101-51.095 3.102-49.875 1.475-48.4 0H-70.11C-70.11 0-67.33 2.38-66.25 5.14-65.132 7.998-65.064 11.152-64.899 14.178-64.725 17.38-65.15 71.639-65.15 72.27-65.15 73.817-65.343 76.164-66.093 77.594-67.033 79.394-68.87 80.64-68.87 80.64L-52.74 86.23V68.86C-46.06 78.44-35.1 85.36-23.29 86.26-3.82 87.74 10.92 79.18 12.43 58.65 13.25 47.47 10.12 11.24 14.14 3.9 15.18 1.99 17.37 0 17.37 0Z"/>
<path transform="matrix(1,0,0,-1,707.6414,373.71589)" d="M0 0C14.6 .265 33.6 .176 46.96 6.712 63.239 14.677 51.884 32.022 38.953 35.54 15.421 41.942 .062 21.61 0 0M0-2.476C-.183-25.231 14.457-44.436 38.769-42.175 47.875-41.329 55.779-35.738 61.742-29.164 62.937-27.847 65.457-24.205 65.457-24.205L66.925-26.253C66.494-27.591 60.923-35.166 58.647-37.237 37.034-56.903-1.302-48.419-10.719-20.336-21.719 12.465 3.979 43.795 38.152 39.703 57.122 37.431 81.535 19.426 54.593 5.904 38.401-2.223 17.741-2.208 0-2.476"/>
<path transform="matrix(1,0,0,-1,564.1661,396.9803)" d="M0 0C0-10.1-17.61-19.31-26.38-20.16-51.69-22.59-55.09 4.62-37.43 16.96-25.48 25.31-12.38 23.82 0 30.09ZM20.47-20.16C13.58-22.39 12.23-18.41 11.76-12.43 10.48 3.91 13.15 22.14 11.77 38.46 9.47 65.81-26.887 69.179-46.227 58.779-47.005 58.472-51.852 55.437-51.852 55.437-51.852 55.437-58.116 59.39-62.282 60.89-71.994 64.386-82.73 62.975-90.765 56.987-94.024 54.558-96.849 51.557-99.08 48.16L-103.61 41.26V62.35H-120.37C-120.37 62.35-116.02 60.89-116.02 53.98V-22.33C-116.02-22.85-115.6-23.26-115.09-23.26H-104.54C-104.03-23.26-103.61-22.85-103.61-22.33V30.4C-103.61 31.55-101.14 38.18-100.44 39.63-97.699 45.307-92.804 49.768-87.204 52.556-81.54 55.375-74.912 56.945-68.707 55.564-59.685 53.557-51.878 46.683-51.81 46.64L-44.449 51.89C-30.616 62.501-5.59 63.54-1.15 44.76 3 27.17-15.36 29.1-27.31 26.06-39.58 22.94-54.55 16.12-59.25 3.41-64.72-11.43-55.21-23.95-40.04-25.15-24.47-26.38-10.09-20.87-.01-8.99-.98-18.44 2.06-26.74 13.06-24.85 14.12-24.66 19.634-22.582 20.47-20.16"/>
<path transform="matrix(1,0,0,-1,535.3344,789.2672)" d="M0 0C-1.05-1.22-8.2-2.18-9.28-2.27-67.25-6.98-95.8 35.1-130.29 72.22-135.99 78.36-141.5 84.73-148.13 89.91-152.46 93.29-159.03 98.95-166.44 93.74-169.78 91.39-170.69 86.81-170.8 82.75-170.94 77.18-171.15 51.09-171.17 33.13H-188.93C-185.52 37.19-183.4 42.19-182.87 47.47-182.8 48.17-182.7 48.86-182.7 49.54-182.7 65.2-182.69 74.77-182.69 80.47-182.69 88.37-178.65 95.82-171.84 99.82-171.79 99.84-171.75 99.87-171.7 99.9-167.26 102.47-162.1 103.73-156.97 103.29-149.68 102.67-142.72 98.99-136.88 94.7-129.73 89.43-123.31 83.18-117.16 76.8-111.14 70.54-105.38 64.04-99.67 57.51-96.79 54.21-93.95 50.85-90.92 47.69-66.42 22.17-46.76 1.8-9.28-.38-4.77-.64 0 0 0 0"/>
<path transform="matrix(1,0,0,-1,661.5677,756.1372)" d="M0 0V61.11C0 62.5-1.57 67.88-2.18 69.47-11.12 92.79-50.74 80.85-52.76 57.41-53.78 45.55-53.89 21.37-52.73 9.62-52.582 8.116-52.223 6.536-51.751 5.101-51.095 3.102-49.875 1.475-48.4 0H-70.11C-70.11 0-67.33 2.38-66.25 5.14-65.132 7.998-65.064 11.152-64.899 14.178-64.725 17.38-65.15 71.639-65.15 72.27-65.15 73.817-65.343 76.164-66.093 77.594-67.033 79.394-68.87 80.64-68.87 80.64L-52.74 86.23V68.86C-46.06 78.44-35.1 85.36-23.29 86.26-3.82 87.74 10.92 79.18 12.43 58.65 13.25 47.47 10.12 11.24 14.14 3.9 15.18 1.99 17.37 0 17.37 0Z"/>
<path transform="matrix(1,0,0,-1,702.093,709.6129)" d="M0 0C14.6 .265 33.601 .176 46.96 6.712 63.239 14.677 51.884 32.022 38.953 35.54 15.421 41.942 .062 21.61 0 0M0-2.476C-.183-25.231 14.457-44.436 38.769-42.175 47.875-41.329 55.779-35.738 61.742-29.164 62.937-27.847 65.457-24.205 65.457-24.205L66.925-26.253C66.494-27.591 60.923-35.166 58.647-37.237 37.034-56.903-1.302-48.419-10.719-20.336-21.719 12.465 3.979 43.795 38.152 39.703 57.122 37.431 81.535 19.426 54.593 5.904 38.401-2.223 17.741-2.208 0-2.476"/>
<path transform="matrix(1,0,0,-1,572.3744,745.3073)" d="M0 0C-1.28 16.34 1.39 34.57 .01 50.89-2.29 78.24-38.64 81.61-57.98 71.21-58.76 70.9-63.61 67.87-63.61 67.87-63.61 67.87-69.87 71.82-74.04 73.32-83.75 76.82-94.49 75.4-102.52 69.42-105.78 66.99-108.61 63.99-110.84 60.59L-115.37 53.69V74.78H-132.13C-132.13 74.78-127.78 73.32-127.78 66.41V16.264L-115.37 3.237V42.83C-115.37 43.98-112.9 50.61-112.2 52.06-109.46 57.74-104.56 62.2-98.96 64.99-93.3 67.8-86.67 69.38-80.46 67.99-71.44 65.99-63.63 59.11-63.57 59.07L-56.21 64.32C-42.37 74.93-17.35 75.97-12.91 57.19-8.76 39.6-27.12 41.53-39.07 38.49-51.34 35.37-66.31 28.55-71.01 15.84-76.48 1-66.97-11.52-51.8-12.72-36.23-13.95-21.85-8.44-11.77 3.44-12.74-6.01-9.7-14.31 1.3-12.42 2.36-12.23 7.88-10.15 8.71-7.73 1.82-9.96 .47-5.98 0 0M-11.757 12.43C-11.757 2.33-29.367-6.88-38.137-7.73-63.447-10.16-66.847 17.05-49.187 29.39-37.237 37.74-24.137 36.25-11.757 42.52Z"/>
<path transform="matrix(1,0,0,-1,463.1844,616.59719)" d="M0 0C-14.67-.93-28.76-4.17-34-9.02-41.26-15.74-45.99-25.59-49.72-34.38-56.95-51.4-64.27-58.23-75.04-61.09-81.63-62.84-113.13-64.31-130.29-86.33H-132.68C-129.85-81.56-126.22-76.71-121.74-73.06-111.26-64.5-99.83-61.1-99.83-61.1-99.83-61.07-101.13-60.72-101.13-60.72-123.57-52.61-133.06-32.66-132.54-15.45-132.26-6.07-129.18 2.87-123.97 10.46-127.18-25.86-119.9-40.77-99.51-53.54-116.48-38.15-123.91-13.15-113.95 21.31-113.28 21.85-112.6 22.38-111.9 22.89L-99.13 32.23C-99.13 32.23-109.45-19.25-97.33-44.07-97.32-44.12-97.29-44.16-97.27-44.21-93.69-52.52-85.35-54.94-76.02-51.67-72.63-50.48-69.76-48.26-67.41-45.58-64.84-42.64-62.85-39.23-61.08-35.77-59.14-32.01-57.46-28.12-55.7-24.27-52.75-17.83-49.54-10.91-44.38-5.82-40.37-1.87-34.87 2.12-29 2.36-26.67 2.46-24.47 2.3-22.25 1.64-21.32 1.36-20.43 1-20.43 1-11.95 1 0 0 0 0"/>
<path transform="matrix(1,0,0,-1,1186.333,480.69514)" d="M0 0C0 0-31.273-32.731-45.586-47.417V0H-58.448V-119.55H-45.586V-55.262C-38.289-55.262-25.941-54.888-17.581-63.109-8.435-72.252-.798-91.119-.626-117.563L-.613-119.55H11.735V-117.55C11.735-88.71 .5-68.866-13.833-58.554-22.638-52.404-37.257-50.843-44.289-51.039L11.735 0Z"/>
<path transform="matrix(1,0,0,-1,1295.7626,561.3064)" d="M0 0C-1.766 6.5-2.661 13.82-2.661 21.756-2.661 29.525-1.79 36.59-.013 43.298 1.897 49.69 4.461 54.979 8.037 59.917 11.304 64.276 15.51 67.68 20.897 70.324 26.001 72.831 32.014 74.102 38.77 74.102 45.406 74.102 51.358 72.831 56.461 70.324 61.848 67.681 66.054 64.276 69.301 59.943 72.898 54.978 75.463 49.688 77.369 43.309 78.443 39.637 79.205 35.584 79.837 30.178V13.316C78.659 1.163 75.023-9.346 69.317-17.08 61.993-26.793 51.43-31.928 38.77-31.928 31.928-31.928 25.931-30.609 20.946-28.008 15.809-25.328 11.466-21.649 8.056-17.102 4.729-12.507 2.014-6.738 0 0M82.252 50.486C75.745 61.775 66.742 72.41 54.523 77.657 41.859 83.094 26.999 81.583 14.954 75.246 2.063 68.465-6.545 56.099-10.776 42.364-13.484 33.573-14.417 24.239-13.606 15.081-12.183-.972-5.337-16.883 6.891-27.379 19.119-37.876 36.979-42.191 52.045-36.471 65.142-31.498 74.61-20.032 82.266-8.3 79.934-18.513 77.603-28.726 75.271-38.939 79.558-38.939 87.845-38.939 92.132-38.938V80.611C87.847 80.612 79.561 80.612 75.275 80.612 77.599 70.579 79.922 60.546 82.252 50.486"/>
<path transform="matrix(1,0,0,-1,1466.4697,486.40504)" d="M0 0C-7.232 5.031-17.811 6.987-29.057 5.35-35.93 4.225-41.792-.312-45.462-3.707V5.71H-58.158V-113.84H-45.462C-45.462-113.84-45.462-12.313-45.462-12.312-36.624 .382-16.648 7.022-4.062-5.239 5.021-14.324 8.897-32.403 8.897-58.65L8.55-113.84H22.095V-58.484C21.924-29.926 14.494-10.252 0 0"/>
<path transform="matrix(1,0,0,-1,1553.2133,485.95)" d="M0 0C.684 0 1.39-.029 2.119-.088 13.009-.833 23.973-8.784 31.703-23.146 24.539-27.793-27.751-62.217-33.903-65.671-34.198-62.775-34.198-59.443-34.198-55.488-34.198-47.401-33.403-39.852-31.786-32.478-30.08-25.82-27.726-20.042-24.634-14.885-21.454-10.032-17.638-6.375-13.018-3.735-8.85-1.502-4.959 0 0 0M41.831-23.314 41.258-21.793C41.156-21.523 30.743 5.22 .806 6.256-6.111 6.439-12.804 4.828-19.012 1.542-24.844-1.292-30.185-5.572-34.911-11.209-39.449-16.835-42.991-23.164-45.433-30.004-47.955-36.899-49.235-44.67-49.234-53.053-49.398-60.114-48.471-67.181-46.479-74.056L-45.453-76.976C-43.103-84.024-39.734-90.412-35.427-95.974-30.98-101.62-25.801-106.002-19.593-109.37L-19.575-109.38C-13.565-112.562-7.33-114.123 .052-114.295 .51-114.303 .96-114.307 1.406-114.307 17.298-114.307 25.964-109.044 35.122-103.48 36.303-102.763 37.501-102.035 38.732-101.308L40.299-100.382 35.438-90.055 33.443-92.696C33.33-92.845 21.91-107.627-.078-107.787-5.825-107.787-9.553-106.185-14.396-103.245-18.755-100.499-22.326-96.874-25.286-92.203-28.278-87.214-30.504-81.452-31.904-75.071-31.979-74.732-32.046-74.451-32.107-74.196-32.267-73.525-32.365-73.116-32.456-72.285-27.399-67.772 41.831-23.314 41.831-23.314"/>
<path transform="matrix(1,0,0,-1,1297.6793,482.6568)" d="M0 0C-10.456-.663-21.623-1.632-30.852-7.056-40.474-12.712-45.539-27.529-49.72-37.38-55.39-50.72-60.263-57.633-68.51-63.133V-117.59H-81.37V1.96H-68.51V-49.75C-68.51-49.75-63.319-43.911-61.08-38.77-58.684-33.269-56.069-27.843-53.443-22.449-51.053-17.542-48.112-9.985-44.38-5.82-40.529-1.522-34.87 2.12-29 2.36-26.094 2.479-23.136 2.095-20.43 1-11.95 1 0 0 0 0"/>
<g inkscape:groupmode="layer" inkscape:label="Isolation Mode">
</g>
</g>
</g>
</svg>
